<mxfile host="app.diagrams.net" agent="Mozilla/5.0 (Windows NT 10.0; Win64; x64) AppleWebKit/537.36 (KHTML, like Gecko) Chrome/128.0.0.0 Safari/537.36" version="24.7.14">
  <diagram name="Page-1" id="2YBvvXClWsGukQMizWep">
    <mxGraphModel dx="2478" dy="2067" grid="1" gridSize="10" guides="1" tooltips="1" connect="1" arrows="1" fold="1" page="1" pageScale="1" pageWidth="850" pageHeight="1100" math="0" shadow="0">
      <root>
        <mxCell id="0" />
        <mxCell id="1" parent="0" />
        <mxCell id="aM9ryv3xv72pqoxQDRHE-1" value=":Player" style="shape=umlLifeline;perimeter=lifelinePerimeter;whiteSpace=wrap;html=1;container=0;dropTarget=0;collapsible=0;recursiveResize=0;outlineConnect=0;portConstraint=eastwest;newEdgeStyle={&quot;edgeStyle&quot;:&quot;elbowEdgeStyle&quot;,&quot;elbow&quot;:&quot;vertical&quot;,&quot;curved&quot;:0,&quot;rounded&quot;:0};" parent="1" vertex="1">
          <mxGeometry x="75" y="40" width="100" height="1030" as="geometry" />
        </mxCell>
        <mxCell id="aM9ryv3xv72pqoxQDRHE-2" value="" style="html=1;points=[];perimeter=orthogonalPerimeter;outlineConnect=0;targetShapes=umlLifeline;portConstraint=eastwest;newEdgeStyle={&quot;edgeStyle&quot;:&quot;elbowEdgeStyle&quot;,&quot;elbow&quot;:&quot;vertical&quot;,&quot;curved&quot;:0,&quot;rounded&quot;:0};" parent="aM9ryv3xv72pqoxQDRHE-1" vertex="1">
          <mxGeometry x="45" y="70" width="10" height="400" as="geometry" />
        </mxCell>
        <mxCell id="NbdB4iv307cXWrZ16x_9-138" value="" style="html=1;points=[];perimeter=orthogonalPerimeter;outlineConnect=0;targetShapes=umlLifeline;portConstraint=eastwest;newEdgeStyle={&quot;edgeStyle&quot;:&quot;elbowEdgeStyle&quot;,&quot;elbow&quot;:&quot;vertical&quot;,&quot;curved&quot;:0,&quot;rounded&quot;:0};" parent="aM9ryv3xv72pqoxQDRHE-1" vertex="1">
          <mxGeometry x="45" y="600" width="10" height="400" as="geometry" />
        </mxCell>
        <mxCell id="aM9ryv3xv72pqoxQDRHE-5" value=":GameView" style="shape=umlLifeline;perimeter=lifelinePerimeter;whiteSpace=wrap;html=1;container=0;dropTarget=0;collapsible=0;recursiveResize=0;outlineConnect=0;portConstraint=eastwest;newEdgeStyle={&quot;edgeStyle&quot;:&quot;elbowEdgeStyle&quot;,&quot;elbow&quot;:&quot;vertical&quot;,&quot;curved&quot;:0,&quot;rounded&quot;:0};" parent="1" vertex="1">
          <mxGeometry x="190" y="40" width="100" height="1040" as="geometry" />
        </mxCell>
        <mxCell id="aM9ryv3xv72pqoxQDRHE-6" value="" style="html=1;points=[];perimeter=orthogonalPerimeter;outlineConnect=0;targetShapes=umlLifeline;portConstraint=eastwest;newEdgeStyle={&quot;edgeStyle&quot;:&quot;elbowEdgeStyle&quot;,&quot;elbow&quot;:&quot;vertical&quot;,&quot;curved&quot;:0,&quot;rounded&quot;:0};" parent="aM9ryv3xv72pqoxQDRHE-5" vertex="1">
          <mxGeometry x="45" y="80" width="10" height="410" as="geometry" />
        </mxCell>
        <mxCell id="NbdB4iv307cXWrZ16x_9-139" value="" style="html=1;points=[];perimeter=orthogonalPerimeter;outlineConnect=0;targetShapes=umlLifeline;portConstraint=eastwest;newEdgeStyle={&quot;edgeStyle&quot;:&quot;elbowEdgeStyle&quot;,&quot;elbow&quot;:&quot;vertical&quot;,&quot;curved&quot;:0,&quot;rounded&quot;:0};" parent="aM9ryv3xv72pqoxQDRHE-5" vertex="1">
          <mxGeometry x="45" y="610" width="10" height="390" as="geometry" />
        </mxCell>
        <mxCell id="aM9ryv3xv72pqoxQDRHE-7" value="Starts Game" style="html=1;verticalAlign=bottom;endArrow=block;edgeStyle=elbowEdgeStyle;elbow=vertical;curved=0;rounded=0;startArrow=oval;startFill=1;targetPerimeterSpacing=1;sourcePerimeterSpacing=0;endSize=6;startSize=8;" parent="1" source="aM9ryv3xv72pqoxQDRHE-2" target="aM9ryv3xv72pqoxQDRHE-6" edge="1">
          <mxGeometry relative="1" as="geometry">
            <mxPoint x="195" y="130" as="sourcePoint" />
            <Array as="points">
              <mxPoint x="180" y="120" />
            </Array>
            <mxPoint as="offset" />
          </mxGeometry>
        </mxCell>
        <mxCell id="NbdB4iv307cXWrZ16x_9-8" value=":GameController" style="shape=umlLifeline;perimeter=lifelinePerimeter;whiteSpace=wrap;html=1;container=0;dropTarget=0;collapsible=0;recursiveResize=0;outlineConnect=0;portConstraint=eastwest;newEdgeStyle={&quot;edgeStyle&quot;:&quot;elbowEdgeStyle&quot;,&quot;elbow&quot;:&quot;vertical&quot;,&quot;curved&quot;:0,&quot;rounded&quot;:0};" parent="1" vertex="1">
          <mxGeometry x="310" y="40" width="100" height="1010" as="geometry" />
        </mxCell>
        <mxCell id="NbdB4iv307cXWrZ16x_9-9" value="" style="html=1;points=[];perimeter=orthogonalPerimeter;outlineConnect=0;targetShapes=umlLifeline;portConstraint=eastwest;newEdgeStyle={&quot;edgeStyle&quot;:&quot;elbowEdgeStyle&quot;,&quot;elbow&quot;:&quot;vertical&quot;,&quot;curved&quot;:0,&quot;rounded&quot;:0};" parent="NbdB4iv307cXWrZ16x_9-8" vertex="1">
          <mxGeometry x="45" y="100" width="10" height="410" as="geometry" />
        </mxCell>
        <mxCell id="NbdB4iv307cXWrZ16x_9-140" value="" style="html=1;points=[];perimeter=orthogonalPerimeter;outlineConnect=0;targetShapes=umlLifeline;portConstraint=eastwest;newEdgeStyle={&quot;edgeStyle&quot;:&quot;elbowEdgeStyle&quot;,&quot;elbow&quot;:&quot;vertical&quot;,&quot;curved&quot;:0,&quot;rounded&quot;:0};" parent="NbdB4iv307cXWrZ16x_9-8" vertex="1">
          <mxGeometry x="45" y="630" width="10" height="350" as="geometry" />
        </mxCell>
        <mxCell id="NbdB4iv307cXWrZ16x_9-11" value=":GameDataStore" style="shape=umlLifeline;perimeter=lifelinePerimeter;whiteSpace=wrap;html=1;container=0;dropTarget=0;collapsible=0;recursiveResize=0;outlineConnect=0;portConstraint=eastwest;newEdgeStyle={&quot;edgeStyle&quot;:&quot;elbowEdgeStyle&quot;,&quot;elbow&quot;:&quot;vertical&quot;,&quot;curved&quot;:0,&quot;rounded&quot;:0};" parent="1" vertex="1">
          <mxGeometry x="425" y="40" width="100" height="1030" as="geometry" />
        </mxCell>
        <mxCell id="NbdB4iv307cXWrZ16x_9-12" value="" style="html=1;points=[];perimeter=orthogonalPerimeter;outlineConnect=0;targetShapes=umlLifeline;portConstraint=eastwest;newEdgeStyle={&quot;edgeStyle&quot;:&quot;elbowEdgeStyle&quot;,&quot;elbow&quot;:&quot;vertical&quot;,&quot;curved&quot;:0,&quot;rounded&quot;:0};" parent="NbdB4iv307cXWrZ16x_9-11" vertex="1">
          <mxGeometry x="45" y="120" width="10" height="410" as="geometry" />
        </mxCell>
        <mxCell id="NbdB4iv307cXWrZ16x_9-141" value="" style="html=1;points=[];perimeter=orthogonalPerimeter;outlineConnect=0;targetShapes=umlLifeline;portConstraint=eastwest;newEdgeStyle={&quot;edgeStyle&quot;:&quot;elbowEdgeStyle&quot;,&quot;elbow&quot;:&quot;vertical&quot;,&quot;curved&quot;:0,&quot;rounded&quot;:0};" parent="NbdB4iv307cXWrZ16x_9-11" vertex="1">
          <mxGeometry x="45" y="660" width="10" height="290" as="geometry" />
        </mxCell>
        <mxCell id="NbdB4iv307cXWrZ16x_9-17" value=":GameModel" style="shape=umlLifeline;perimeter=lifelinePerimeter;whiteSpace=wrap;html=1;container=0;dropTarget=0;collapsible=0;recursiveResize=0;outlineConnect=0;portConstraint=eastwest;newEdgeStyle={&quot;edgeStyle&quot;:&quot;elbowEdgeStyle&quot;,&quot;elbow&quot;:&quot;vertical&quot;,&quot;curved&quot;:0,&quot;rounded&quot;:0};" parent="1" vertex="1">
          <mxGeometry x="540" y="40" width="100" height="1030" as="geometry" />
        </mxCell>
        <mxCell id="NbdB4iv307cXWrZ16x_9-18" value="" style="html=1;points=[];perimeter=orthogonalPerimeter;outlineConnect=0;targetShapes=umlLifeline;portConstraint=eastwest;newEdgeStyle={&quot;edgeStyle&quot;:&quot;elbowEdgeStyle&quot;,&quot;elbow&quot;:&quot;vertical&quot;,&quot;curved&quot;:0,&quot;rounded&quot;:0};" parent="NbdB4iv307cXWrZ16x_9-17" vertex="1">
          <mxGeometry x="45" y="150" width="10" height="370" as="geometry" />
        </mxCell>
        <mxCell id="NbdB4iv307cXWrZ16x_9-143" value="" style="html=1;points=[];perimeter=orthogonalPerimeter;outlineConnect=0;targetShapes=umlLifeline;portConstraint=eastwest;newEdgeStyle={&quot;edgeStyle&quot;:&quot;elbowEdgeStyle&quot;,&quot;elbow&quot;:&quot;vertical&quot;,&quot;curved&quot;:0,&quot;rounded&quot;:0};" parent="NbdB4iv307cXWrZ16x_9-17" vertex="1">
          <mxGeometry x="45" y="680" width="10" height="250" as="geometry" />
        </mxCell>
        <mxCell id="NbdB4iv307cXWrZ16x_9-20" value=":PlayerTank" style="shape=umlLifeline;perimeter=lifelinePerimeter;whiteSpace=wrap;html=1;container=0;dropTarget=0;collapsible=0;recursiveResize=0;outlineConnect=0;portConstraint=eastwest;newEdgeStyle={&quot;edgeStyle&quot;:&quot;elbowEdgeStyle&quot;,&quot;elbow&quot;:&quot;vertical&quot;,&quot;curved&quot;:0,&quot;rounded&quot;:0};" parent="1" vertex="1">
          <mxGeometry x="650" y="40" width="100" height="1030" as="geometry" />
        </mxCell>
        <mxCell id="NbdB4iv307cXWrZ16x_9-27" value="&lt;span style=&quot;color: rgba(0, 0, 0, 0); font-family: monospace; font-size: 0px; text-align: start;&quot;&gt;%3CmxGraphModel%3E%3Croot%3E%3CmxCell%20id%3D%220%22%2F%3E%3CmxCell%20id%3D%221%22%20parent%3D%220%22%2F%3E%3CmxCell%20id%3D%222%22%20value%3D%22return%20character%22%20style%3D%22html%3D1%3BverticalAlign%3Dbottom%3BendArrow%3Dopen%3Bdashed%3D1%3BendSize%3D8%3Bcurved%3D0%3Brounded%3D0%3BexitX%3D0.295%3BexitY%3D0.763%3BexitDx%3D0%3BexitDy%3D0%3BexitPerimeter%3D0%3B%22%20edge%3D%221%22%20parent%3D%221%22%3E%3CmxGeometry%20x%3D%220.0032%22%20relative%3D%221%22%20as%3D%22geometry%22%3E%3CmxPoint%20x%3D%22818%22%20y%3D%22231%22%20as%3D%22sourcePoint%22%2F%3E%3CmxPoint%20x%3D%22679%22%20y%3D%22231%22%20as%3D%22targetPoint%22%2F%3E%3CmxPoint%20as%3D%22offset%22%2F%3E%3C%2FmxGeometry%3E%3C%2FmxCell%3E%3C%2Froot%3E%3C%2FmxGraphModel%3E&lt;/span&gt;" style="html=1;points=[];perimeter=orthogonalPerimeter;outlineConnect=0;targetShapes=umlLifeline;portConstraint=eastwest;newEdgeStyle={&quot;edgeStyle&quot;:&quot;elbowEdgeStyle&quot;,&quot;elbow&quot;:&quot;vertical&quot;,&quot;curved&quot;:0,&quot;rounded&quot;:0};" parent="NbdB4iv307cXWrZ16x_9-20" vertex="1">
          <mxGeometry x="45" y="170" width="10" height="40" as="geometry" />
        </mxCell>
        <mxCell id="NbdB4iv307cXWrZ16x_9-142" value="" style="html=1;points=[];perimeter=orthogonalPerimeter;outlineConnect=0;targetShapes=umlLifeline;portConstraint=eastwest;newEdgeStyle={&quot;edgeStyle&quot;:&quot;elbowEdgeStyle&quot;,&quot;elbow&quot;:&quot;vertical&quot;,&quot;curved&quot;:0,&quot;rounded&quot;:0};" parent="NbdB4iv307cXWrZ16x_9-20" vertex="1">
          <mxGeometry x="45" y="710" width="10" height="30" as="geometry" />
        </mxCell>
        <mxCell id="NbdB4iv307cXWrZ16x_9-35" value="" style="shape=umlActor;verticalLabelPosition=bottom;verticalAlign=top;html=1;outlineConnect=0;" parent="1" vertex="1">
          <mxGeometry x="110" y="-20" width="30" height="60" as="geometry" />
        </mxCell>
        <mxCell id="NbdB4iv307cXWrZ16x_9-105" value="handleStartInput()" style="html=1;verticalAlign=bottom;startArrow=oval;startFill=1;endArrow=block;startSize=8;curved=0;rounded=0;" parent="1" target="NbdB4iv307cXWrZ16x_9-9" edge="1">
          <mxGeometry width="60" relative="1" as="geometry">
            <mxPoint x="240" y="140" as="sourcePoint" />
            <mxPoint x="350" y="140" as="targetPoint" />
            <mxPoint as="offset" />
          </mxGeometry>
        </mxCell>
        <mxCell id="NbdB4iv307cXWrZ16x_9-106" value="loadGameData()" style="html=1;verticalAlign=bottom;startArrow=oval;startFill=1;endArrow=block;startSize=8;curved=0;rounded=0;" parent="1" edge="1">
          <mxGeometry width="60" relative="1" as="geometry">
            <mxPoint x="359.63043478260875" y="160" as="sourcePoint" />
            <mxPoint x="470" y="160" as="targetPoint" />
          </mxGeometry>
        </mxCell>
        <mxCell id="NbdB4iv307cXWrZ16x_9-110" value="loadGame()" style="html=1;verticalAlign=bottom;startArrow=oval;startFill=1;endArrow=block;startSize=8;curved=0;rounded=0;exitX=0.465;exitY=0.248;exitDx=0;exitDy=0;exitPerimeter=0;" parent="1" edge="1">
          <mxGeometry x="0.0055" width="60" relative="1" as="geometry">
            <mxPoint x="474.6500000000001" y="189.56999999999982" as="sourcePoint" />
            <mxPoint x="585" y="189.56999999999982" as="targetPoint" />
            <mxPoint as="offset" />
          </mxGeometry>
        </mxCell>
        <mxCell id="NbdB4iv307cXWrZ16x_9-117" value="loadCharacter()" style="html=1;verticalAlign=bottom;startArrow=oval;startFill=1;endArrow=block;startSize=8;curved=0;rounded=0;" parent="1" target="NbdB4iv307cXWrZ16x_9-27" edge="1">
          <mxGeometry width="60" relative="1" as="geometry">
            <mxPoint x="590" y="214.57" as="sourcePoint" />
            <mxPoint x="690" y="214.57" as="targetPoint" />
          </mxGeometry>
        </mxCell>
        <mxCell id="NbdB4iv307cXWrZ16x_9-119" value="&lt;font style=&quot;font-size: 10px;&quot;&gt;return Character&lt;/font&gt;" style="html=1;verticalAlign=bottom;endArrow=open;dashed=1;endSize=8;curved=0;rounded=0;" parent="1" edge="1">
          <mxGeometry relative="1" as="geometry">
            <mxPoint x="695" y="250" as="sourcePoint" />
            <mxPoint x="589.6304347826087" y="250" as="targetPoint" />
          </mxGeometry>
        </mxCell>
        <mxCell id="NbdB4iv307cXWrZ16x_9-127" value="&lt;font style=&quot;font-size: 25px;&quot;&gt;Level 1: Start Game (Core)&lt;/font&gt;" style="text;align=center;fontStyle=1;verticalAlign=middle;spacingLeft=3;spacingRight=3;strokeColor=none;rotatable=0;points=[[0,0.5],[1,0.5]];portConstraint=eastwest;html=1;" parent="1" vertex="1">
          <mxGeometry x="-245" y="203" width="320" height="26" as="geometry" />
        </mxCell>
        <mxCell id="NbdB4iv307cXWrZ16x_9-132" value="getPlayerData()" style="html=1;verticalAlign=bottom;startArrow=oval;startFill=1;endArrow=block;startSize=8;curved=0;rounded=0;" parent="1" edge="1">
          <mxGeometry width="60" relative="1" as="geometry">
            <mxPoint x="360.00043478260875" y="215.57" as="sourcePoint" />
            <mxPoint x="470.37" y="215.57" as="targetPoint" />
          </mxGeometry>
        </mxCell>
        <mxCell id="NbdB4iv307cXWrZ16x_9-133" value="&lt;font style=&quot;font-size: 9px;&quot;&gt;return GameData&lt;/font&gt;" style="html=1;verticalAlign=bottom;endArrow=open;dashed=1;endSize=8;curved=0;rounded=0;" parent="1" target="NbdB4iv307cXWrZ16x_9-12" edge="1">
          <mxGeometry relative="1" as="geometry">
            <mxPoint x="590" y="560" as="sourcePoint" />
            <mxPoint x="510" y="560" as="targetPoint" />
          </mxGeometry>
        </mxCell>
        <mxCell id="NbdB4iv307cXWrZ16x_9-134" value="&lt;font style=&quot;font-size: 8px;&quot;&gt;return LoadedGameData&lt;/font&gt;" style="html=1;verticalAlign=bottom;endArrow=open;dashed=1;endSize=8;curved=0;rounded=0;" parent="1" target="NbdB4iv307cXWrZ16x_9-8" edge="1">
          <mxGeometry relative="1" as="geometry">
            <mxPoint x="470" y="540" as="sourcePoint" />
            <mxPoint x="390" y="540" as="targetPoint" />
          </mxGeometry>
        </mxCell>
        <mxCell id="NbdB4iv307cXWrZ16x_9-135" value="&lt;font style=&quot;font-size: 8px;&quot;&gt;return UpdateGameView&lt;/font&gt;" style="html=1;verticalAlign=bottom;endArrow=open;dashed=1;endSize=8;curved=0;rounded=0;" parent="1" edge="1">
          <mxGeometry x="-0.0051" relative="1" as="geometry">
            <mxPoint x="355" y="520" as="sourcePoint" />
            <mxPoint x="239.63043478260852" y="520" as="targetPoint" />
            <mxPoint as="offset" />
          </mxGeometry>
        </mxCell>
        <mxCell id="NbdB4iv307cXWrZ16x_9-136" value="&lt;font style=&quot;font-size: 8px;&quot;&gt;return display&lt;/font&gt;" style="html=1;verticalAlign=bottom;endArrow=open;dashed=1;endSize=8;curved=0;rounded=0;" parent="1" target="aM9ryv3xv72pqoxQDRHE-2" edge="1">
          <mxGeometry x="-0.0051" relative="1" as="geometry">
            <mxPoint x="235.37" y="490" as="sourcePoint" />
            <mxPoint x="120.00043478260852" y="490" as="targetPoint" />
            <mxPoint as="offset" />
          </mxGeometry>
        </mxCell>
        <mxCell id="NbdB4iv307cXWrZ16x_9-137" value="&lt;font style=&quot;font-size: 23px;&quot;&gt;Level 2: Initiate Combat (Mechanic)&lt;/font&gt;" style="text;align=center;fontStyle=1;verticalAlign=middle;spacingLeft=3;spacingRight=3;strokeColor=none;rotatable=0;points=[[0,0.5],[1,0.5]];portConstraint=eastwest;html=1;" parent="1" vertex="1">
          <mxGeometry x="-315" y="800" width="390" height="26" as="geometry" />
        </mxCell>
        <mxCell id="NbdB4iv307cXWrZ16x_9-149" value="&lt;font style=&quot;font-size: 10px;&quot;&gt;Player shoot&lt;/font&gt;" style="html=1;verticalAlign=bottom;startArrow=oval;startFill=1;endArrow=block;startSize=8;curved=0;rounded=0;" parent="1" edge="1">
          <mxGeometry width="60" relative="1" as="geometry">
            <mxPoint x="130" y="650" as="sourcePoint" />
            <mxPoint x="235" y="650" as="targetPoint" />
          </mxGeometry>
        </mxCell>
        <mxCell id="NbdB4iv307cXWrZ16x_9-150" value="&lt;font style=&quot;font-size: 10px;&quot;&gt;renderer()&lt;/font&gt;" style="html=1;verticalAlign=bottom;startArrow=oval;startFill=1;endArrow=block;startSize=8;curved=0;rounded=0;" parent="1" edge="1">
          <mxGeometry x="0.0042" width="60" relative="1" as="geometry">
            <mxPoint x="240" y="670" as="sourcePoint" />
            <mxPoint x="360" y="670" as="targetPoint" />
            <mxPoint as="offset" />
          </mxGeometry>
        </mxCell>
        <mxCell id="NbdB4iv307cXWrZ16x_9-151" value="&lt;font style=&quot;font-size: 10px;&quot;&gt;Texture()&lt;/font&gt;" style="html=1;verticalAlign=bottom;startArrow=oval;startFill=1;endArrow=block;startSize=8;curved=0;rounded=0;" parent="1" target="NbdB4iv307cXWrZ16x_9-141" edge="1">
          <mxGeometry x="0.0061" width="60" relative="1" as="geometry">
            <mxPoint x="360" y="700" as="sourcePoint" />
            <mxPoint x="420" y="700" as="targetPoint" />
            <mxPoint as="offset" />
          </mxGeometry>
        </mxCell>
        <mxCell id="NbdB4iv307cXWrZ16x_9-152" value="updateScene()" style="html=1;verticalAlign=bottom;startArrow=oval;startFill=1;endArrow=block;startSize=8;curved=0;rounded=0;" parent="1" target="NbdB4iv307cXWrZ16x_9-143" edge="1">
          <mxGeometry x="-0.0476" y="10" width="60" relative="1" as="geometry">
            <mxPoint x="480" y="720" as="sourcePoint" />
            <mxPoint x="540" y="720" as="targetPoint" />
            <mxPoint as="offset" />
          </mxGeometry>
        </mxCell>
        <mxCell id="NbdB4iv307cXWrZ16x_9-153" value="&lt;font style=&quot;font-size: 9px;&quot;&gt;updatePlayerStats()&lt;/font&gt;" style="html=1;verticalAlign=bottom;startArrow=oval;startFill=1;endArrow=block;startSize=8;curved=0;rounded=0;" parent="1" source="NbdB4iv307cXWrZ16x_9-17" target="NbdB4iv307cXWrZ16x_9-142" edge="1">
          <mxGeometry width="60" relative="1" as="geometry">
            <mxPoint x="600" y="750" as="sourcePoint" />
            <mxPoint x="660" y="750" as="targetPoint" />
          </mxGeometry>
        </mxCell>
        <mxCell id="NbdB4iv307cXWrZ16x_9-156" value="return PlayerData" style="html=1;verticalAlign=bottom;endArrow=open;dashed=1;endSize=8;curved=0;rounded=0;" parent="1" target="NbdB4iv307cXWrZ16x_9-9" edge="1">
          <mxGeometry relative="1" as="geometry">
            <mxPoint x="470" y="240" as="sourcePoint" />
            <mxPoint x="390" y="240" as="targetPoint" />
          </mxGeometry>
        </mxCell>
        <mxCell id="NbdB4iv307cXWrZ16x_9-157" value="&lt;font style=&quot;font-size: 8px;&quot;&gt;return isPlayerDead&amp;nbsp;&lt;/font&gt;" style="html=1;verticalAlign=bottom;endArrow=open;dashed=1;endSize=8;curved=0;rounded=0;" parent="1" target="NbdB4iv307cXWrZ16x_9-143" edge="1">
          <mxGeometry relative="1" as="geometry">
            <mxPoint x="695" y="780" as="sourcePoint" />
            <mxPoint x="605" y="780" as="targetPoint" />
          </mxGeometry>
        </mxCell>
        <mxCell id="Y_mhGDzTvH_pU66b-tNC-4" value="&lt;font style=&quot;font-size: 8px;&quot;&gt;return updateGameState&lt;/font&gt;" style="html=1;verticalAlign=bottom;endArrow=open;dashed=1;endSize=8;curved=0;rounded=0;" parent="1" edge="1">
          <mxGeometry relative="1" as="geometry">
            <mxPoint x="585" y="960" as="sourcePoint" />
            <mxPoint x="480" y="960" as="targetPoint" />
          </mxGeometry>
        </mxCell>
        <mxCell id="Y_mhGDzTvH_pU66b-tNC-5" value="&lt;font style=&quot;font-size: 8px;&quot;&gt;return updatePlayerData&lt;/font&gt;" style="html=1;verticalAlign=bottom;endArrow=open;dashed=1;endSize=8;curved=0;rounded=0;" parent="1" edge="1">
          <mxGeometry relative="1" as="geometry">
            <mxPoint x="470" y="980" as="sourcePoint" />
            <mxPoint x="365" y="980" as="targetPoint" />
          </mxGeometry>
        </mxCell>
        <mxCell id="Y_mhGDzTvH_pU66b-tNC-6" value="&lt;font style=&quot;font-size: 9px;&quot;&gt;return updateGameView&lt;/font&gt;" style="html=1;verticalAlign=bottom;endArrow=open;dashed=1;endSize=8;curved=0;rounded=0;" parent="1" edge="1">
          <mxGeometry relative="1" as="geometry">
            <mxPoint x="355" y="1010" as="sourcePoint" />
            <mxPoint x="245" y="1010" as="targetPoint" />
          </mxGeometry>
        </mxCell>
        <mxCell id="Y_mhGDzTvH_pU66b-tNC-7" value="&lt;font style=&quot;font-size: 7px;&quot;&gt;return display&lt;/font&gt;" style="html=1;verticalAlign=bottom;endArrow=open;dashed=1;endSize=8;curved=0;rounded=0;" parent="1" source="NbdB4iv307cXWrZ16x_9-139" edge="1">
          <mxGeometry relative="1" as="geometry">
            <mxPoint x="240" y="1030" as="sourcePoint" />
            <mxPoint x="130" y="1030" as="targetPoint" />
          </mxGeometry>
        </mxCell>
        <mxCell id="N0q7qcbGXt1512SbXxwM-1" value=":Enemy Entity" style="shape=umlLifeline;perimeter=lifelinePerimeter;whiteSpace=wrap;html=1;container=0;dropTarget=0;collapsible=0;recursiveResize=0;outlineConnect=0;portConstraint=eastwest;newEdgeStyle={&quot;edgeStyle&quot;:&quot;elbowEdgeStyle&quot;,&quot;elbow&quot;:&quot;vertical&quot;,&quot;curved&quot;:0,&quot;rounded&quot;:0};" vertex="1" parent="1">
          <mxGeometry x="760" y="40" width="100" height="1030" as="geometry" />
        </mxCell>
        <mxCell id="N0q7qcbGXt1512SbXxwM-2" value="&lt;span style=&quot;color: rgba(0, 0, 0, 0); font-family: monospace; font-size: 0px; text-align: start;&quot;&gt;%3CmxGraphModel%3E%3Croot%3E%3CmxCell%20id%3D%220%22%2F%3E%3CmxCell%20id%3D%221%22%20parent%3D%220%22%2F%3E%3CmxCell%20id%3D%222%22%20value%3D%22return%20character%22%20style%3D%22html%3D1%3BverticalAlign%3Dbottom%3BendArrow%3Dopen%3Bdashed%3D1%3BendSize%3D8%3Bcurved%3D0%3Brounded%3D0%3BexitX%3D0.295%3BexitY%3D0.763%3BexitDx%3D0%3BexitDy%3D0%3BexitPerimeter%3D0%3B%22%20edge%3D%221%22%20parent%3D%221%22%3E%3CmxGeometry%20x%3D%220.0032%22%20relative%3D%221%22%20as%3D%22geometry%22%3E%3CmxPoint%20x%3D%22818%22%20y%3D%22231%22%20as%3D%22sourcePoint%22%2F%3E%3CmxPoint%20x%3D%22679%22%20y%3D%22231%22%20as%3D%22targetPoint%22%2F%3E%3CmxPoint%20as%3D%22offset%22%2F%3E%3C%2FmxGeometry%3E%3C%2FmxCell%3E%3C%2Froot%3E%3C%2FmxGraphModel%3E&lt;/span&gt;" style="html=1;points=[];perimeter=orthogonalPerimeter;outlineConnect=0;targetShapes=umlLifeline;portConstraint=eastwest;newEdgeStyle={&quot;edgeStyle&quot;:&quot;elbowEdgeStyle&quot;,&quot;elbow&quot;:&quot;vertical&quot;,&quot;curved&quot;:0,&quot;rounded&quot;:0};" vertex="1" parent="N0q7qcbGXt1512SbXxwM-1">
          <mxGeometry x="45" y="170" width="10" height="40" as="geometry" />
        </mxCell>
        <mxCell id="N0q7qcbGXt1512SbXxwM-3" value="" style="html=1;points=[];perimeter=orthogonalPerimeter;outlineConnect=0;targetShapes=umlLifeline;portConstraint=eastwest;newEdgeStyle={&quot;edgeStyle&quot;:&quot;elbowEdgeStyle&quot;,&quot;elbow&quot;:&quot;vertical&quot;,&quot;curved&quot;:0,&quot;rounded&quot;:0};" vertex="1" parent="N0q7qcbGXt1512SbXxwM-1">
          <mxGeometry x="45" y="710" width="10" height="30" as="geometry" />
        </mxCell>
        <mxCell id="N0q7qcbGXt1512SbXxwM-4" value="CollisionCheck()" style="html=1;verticalAlign=bottom;startArrow=oval;startFill=1;endArrow=block;startSize=8;curved=0;rounded=0;" edge="1" parent="1">
          <mxGeometry width="60" relative="1" as="geometry">
            <mxPoint x="700" y="215.64" as="sourcePoint" />
            <mxPoint x="805" y="216.07" as="targetPoint" />
          </mxGeometry>
        </mxCell>
        <mxCell id="N0q7qcbGXt1512SbXxwM-5" value="&lt;span style=&quot;font-size: 10px;&quot;&gt;return Bool Die()&lt;/span&gt;" style="html=1;verticalAlign=bottom;endArrow=open;dashed=1;endSize=8;curved=0;rounded=0;" edge="1" parent="1">
          <mxGeometry relative="1" as="geometry">
            <mxPoint x="805.37" y="240" as="sourcePoint" />
            <mxPoint x="700.0004347826087" y="240" as="targetPoint" />
          </mxGeometry>
        </mxCell>
        <mxCell id="N0q7qcbGXt1512SbXxwM-6" value="&lt;font style=&quot;font-size: 9px;&quot;&gt;SceneChanger()&lt;/font&gt;" style="html=1;verticalAlign=bottom;startArrow=oval;startFill=1;endArrow=block;startSize=8;curved=0;rounded=0;" edge="1" parent="1">
          <mxGeometry width="60" relative="1" as="geometry">
            <mxPoint x="700" y="760" as="sourcePoint" />
            <mxPoint x="805" y="760" as="targetPoint" />
          </mxGeometry>
        </mxCell>
        <mxCell id="N0q7qcbGXt1512SbXxwM-7" value="&lt;font style=&quot;font-size: 8px;&quot;&gt;return currentScene++&amp;nbsp;&lt;/font&gt;" style="html=1;verticalAlign=bottom;endArrow=open;dashed=1;endSize=8;curved=0;rounded=0;" edge="1" parent="1">
          <mxGeometry relative="1" as="geometry">
            <mxPoint x="800" y="780" as="sourcePoint" />
            <mxPoint x="700" y="780" as="targetPoint" />
            <mxPoint as="offset" />
          </mxGeometry>
        </mxCell>
      </root>
    </mxGraphModel>
  </diagram>
</mxfile>
